<svg xmlns="http://www.w3.org/2000/svg" xmlns:xlink="http://www.w3.org/1999/xlink" viewBox="0 0 291.22 71.57"><defs><style>.cls-1,.cls-6{fill:none;}.cls-2{fill:#36beff;}.cls-3{clip-path:url(#clip-path);}.cls-4{fill:url(#linear-gradient);}.cls-5{fill:url(#linear-gradient-2);}.cls-6{stroke:#fff;stroke-opacity:0.2;stroke-width:0.78px;}.cls-7,.cls-9{stroke-miterlimit:10;stroke-width:0.61px;}.cls-7{fill:url(#radial-gradient);stroke:url(#linear-gradient-3);}.cls-8,.cls-9{fill:url(#radial-gradient-2);}.cls-9{stroke:url(#linear-gradient-4);}</style><clipPath id="clip-path" transform="translate(7.36 0.54)"><path class="cls-1" d="M0,50.21V20.43a20.46,20.46,0,0,1,1.5-7.69v0A19.14,19.14,0,0,1,3,9.73,18.82,18.82,0,0,1,5.36,6.65c.1-.11.2-.22.32-.33a.94.94,0,0,1,.17-.18q.48-.51,1-1A20.13,20.13,0,0,1,14.43.91,16.43,16.43,0,0,1,16.1.47l.09,0h0c.37-.08.71-.15,1.09-.2L17.8.17A19,19,0,0,1,20.43,0H50.21A18.49,18.49,0,0,1,53,.21,12.41,12.41,0,0,1,54.4.44l.13,0A15.15,15.15,0,0,1,56.2.91a19.53,19.53,0,0,1,3.44,1.4,20.54,20.54,0,0,1,4.12,2.84,17.81,17.81,0,0,1,1.51,1.5A18.88,18.88,0,0,1,67.6,9.73a19.13,19.13,0,0,1,1.58,3.13,20.24,20.24,0,0,1,1.45,7.57V50.21a20.42,20.42,0,0,1-2.06,9c-.09.19-.18.36-.29.55a20.42,20.42,0,0,1-18.07,10.9H20.43A20.4,20.4,0,0,1,2.36,59.73c-.12-.2-.22-.4-.32-.6A20.36,20.36,0,0,1,0,50.21Z"/></clipPath><linearGradient id="linear-gradient" y1="35.32" x2="70.63" y2="35.32" gradientUnits="userSpaceOnUse"><stop offset="0" stop-color="#36beff"/><stop offset="1" stop-color="#36beff" stop-opacity="0"/></linearGradient><linearGradient id="linear-gradient-2" x1="2685.18" y1="-499.34" x2="2755.82" y2="-499.34" gradientTransform="translate(2755.82 -464.02) rotate(180)" gradientUnits="userSpaceOnUse"><stop offset="0" stop-color="#36beff"/><stop offset="0.01" stop-color="#36beff" stop-opacity="0.97"/><stop offset="0.09" stop-color="#36beff" stop-opacity="0.77"/><stop offset="0.17" stop-color="#36beff" stop-opacity="0.59"/><stop offset="0.26" stop-color="#36beff" stop-opacity="0.43"/><stop offset="0.35" stop-color="#36beff" stop-opacity="0.3"/><stop offset="0.44" stop-color="#36beff" stop-opacity="0.19"/><stop offset="0.55" stop-color="#36beff" stop-opacity="0.1"/><stop offset="0.66" stop-color="#36beff" stop-opacity="0.05"/><stop offset="0.8" stop-color="#36beff" stop-opacity="0.01"/><stop offset="1" stop-color="#36beff" stop-opacity="0"/></linearGradient><radialGradient id="radial-gradient" cx="43.99" cy="23.9" r="116.35" gradientUnits="userSpaceOnUse"><stop offset="0" stop-color="#fff"/><stop offset="0.14" stop-color="#fff" stop-opacity="0.93"/><stop offset="0.43" stop-color="#fff" stop-opacity="0.74"/><stop offset="0.82" stop-color="#fff" stop-opacity="0.44"/><stop offset="1" stop-color="#fff" stop-opacity="0.3"/></radialGradient><linearGradient id="linear-gradient-3" y1="35.35" x2="55.31" y2="35.35" gradientUnits="userSpaceOnUse"><stop offset="0.28" stop-color="#36beff" stop-opacity="0.3"/><stop offset="0.42" stop-color="#64cdff" stop-opacity="0.22"/><stop offset="0.66" stop-color="#a8e3ff" stop-opacity="0.1"/><stop offset="0.86" stop-color="#d1f0ff" stop-opacity="0.03"/><stop offset="1" stop-color="#e0f5ff" stop-opacity="0"/></linearGradient><radialGradient id="radial-gradient-2" cx="43.99" cy="23.9" r="116.35" xlink:href="#radial-gradient"/><linearGradient id="linear-gradient-4" x1="39.22" y1="38.35" x2="85.18" y2="38.35" gradientUnits="userSpaceOnUse"><stop offset="0.2" stop-color="#36beff" stop-opacity="0.3"/><stop offset="0.24" stop-color="#50c6ff" stop-opacity="0.25"/><stop offset="0.32" stop-color="#85d7ff" stop-opacity="0.16"/><stop offset="0.42" stop-color="#aee5ff" stop-opacity="0.09"/><stop offset="0.53" stop-color="#caeeff" stop-opacity="0.04"/><stop offset="0.68" stop-color="#dbf3ff" stop-opacity="0.01"/><stop offset="1" stop-color="#e0f5ff" stop-opacity="0"/></linearGradient></defs><g id="Layer_2" data-name="Layer 2"><g id="Layer_1-2" data-name="Layer 1"><path class="cls-2" d="M283.86,19.89,275.55,35.3l8.31,15.4h-7l-4.79-9-4.78,9h-7l8.27-15.4-8.27-15.41h7l4.78,8.9,4.79-8.9Z" transform="translate(7.36 0.54)"/><g class="cls-3"><path class="cls-4" d="M70.63,20.43V50.21a20.4,20.4,0,0,1-1.49,7.68v0a20.53,20.53,0,0,1-1.53,3A19.32,19.32,0,0,1,65.27,64c-.09.1-.19.21-.31.32a1,1,0,0,1-.18.19,13.43,13.43,0,0,1-1,1,20.74,20.74,0,0,1-4.13,2.84,19.56,19.56,0,0,1-3.44,1.41c-.54.17-1.1.31-1.67.43a.24.24,0,0,1-.09,0h0c-.36.07-.71.14-1.08.19l-.47.07a19,19,0,0,1-2.63.17H20.43a18.72,18.72,0,0,1-2.82-.2c-.47-.06-.93-.13-1.38-.23l-.13,0c-.56-.12-1.12-.26-1.67-.43A19.12,19.12,0,0,1,11,68.32a20.47,20.47,0,0,1-4.11-2.84A17.84,17.84,0,0,1,5.36,64a20.88,20.88,0,0,1-3.91-6.22A20.19,20.19,0,0,1,0,50.21V20.43a20.46,20.46,0,0,1,2.06-9q.13-.27.3-.54A20.41,20.41,0,0,1,20.43,0H50.21A20.4,20.4,0,0,1,68.28,10.91a5.65,5.65,0,0,1,.31.6A20.32,20.32,0,0,1,70.63,20.43Z" transform="translate(7.36 0.54)"/><path class="cls-5" d="M0,50.21V20.43a20.46,20.46,0,0,1,1.5-7.69v0A19.14,19.14,0,0,1,3,9.73,18.82,18.82,0,0,1,5.36,6.65c.1-.11.2-.22.32-.33a.94.94,0,0,1,.17-.18q.48-.51,1-1A20.13,20.13,0,0,1,14.43.91,16.43,16.43,0,0,1,16.1.47l.09,0h0c.37-.08.71-.15,1.09-.2L17.8.17A19,19,0,0,1,20.43,0H50.21A18.49,18.49,0,0,1,53,.21,12.41,12.41,0,0,1,54.4.44l.13,0A15.15,15.15,0,0,1,56.2.91a19.53,19.53,0,0,1,3.44,1.4,20.54,20.54,0,0,1,4.12,2.84,17.81,17.81,0,0,1,1.51,1.5A18.88,18.88,0,0,1,67.6,9.73a19.13,19.13,0,0,1,1.58,3.13,20.24,20.24,0,0,1,1.45,7.57V50.21a20.42,20.42,0,0,1-2.06,9c-.09.19-.18.36-.29.55a20.42,20.42,0,0,1-18.07,10.9H20.43A20.4,20.4,0,0,1,2.36,59.73c-.12-.2-.22-.4-.32-.6A20.36,20.36,0,0,1,0,50.21Z" transform="translate(7.36 0.54)"/><path class="cls-6" d="M70.63,20.43V50.21a20.4,20.4,0,0,1-1.49,7.68v0a20.53,20.53,0,0,1-1.53,3A19.32,19.32,0,0,1,65.27,64c-.09.1-.19.21-.31.32a1,1,0,0,1-.18.19,13.43,13.43,0,0,1-1,1,20.74,20.74,0,0,1-4.13,2.84,19.56,19.56,0,0,1-3.44,1.41c-.54.17-1.1.31-1.67.43a.24.24,0,0,1-.09,0h0c-.36.07-.71.14-1.08.19l-.47.07a19,19,0,0,1-2.63.17H20.43a18.72,18.72,0,0,1-2.82-.2c-.47-.06-.93-.13-1.38-.23l-.13,0c-.56-.12-1.12-.26-1.67-.43A19.12,19.12,0,0,1,11,68.32a20.47,20.47,0,0,1-4.11-2.84A17.84,17.84,0,0,1,5.36,64a20.88,20.88,0,0,1-3.91-6.22A20.19,20.19,0,0,1,0,50.21V20.43a20.46,20.46,0,0,1,2.06-9q.13-.27.3-.54A20.41,20.41,0,0,1,20.43,0H50.21A20.4,20.4,0,0,1,68.28,10.91a5.65,5.65,0,0,1,.31.6A20.32,20.32,0,0,1,70.63,20.43Z" transform="translate(7.36 0.54)"/><path class="cls-1" d="M70.63,20.43V50.21a20.4,20.4,0,0,1-1.49,7.68v0a20.53,20.53,0,0,1-1.53,3A19.32,19.32,0,0,1,65.27,64c-.09.1-.19.21-.31.32a1,1,0,0,1-.18.19,13.43,13.43,0,0,1-1,1,20.74,20.74,0,0,1-4.13,2.84,19.56,19.56,0,0,1-3.44,1.41c-.54.17-1.1.31-1.67.43a.24.24,0,0,1-.09,0h0c-.36.07-.71.14-1.08.19l-.47.07a19,19,0,0,1-2.63.17H20.43a18.72,18.72,0,0,1-2.82-.2c-.47-.06-.93-.13-1.38-.23l-.13,0c-.56-.12-1.12-.26-1.67-.43A19.12,19.12,0,0,1,11,68.32a20.47,20.47,0,0,1-4.11-2.84A17.84,17.84,0,0,1,5.36,64a20.88,20.88,0,0,1-3.91-6.22A20.19,20.19,0,0,1,0,50.21V20.43a20.46,20.46,0,0,1,2.06-9q.13-.27.3-.54A20.41,20.41,0,0,1,20.43,0H50.21A20.4,20.4,0,0,1,68.28,10.91a5.65,5.65,0,0,1,.31.6A20.32,20.32,0,0,1,70.63,20.43Z" transform="translate(7.36 0.54)"/><polygon class="cls-7" points="54.83 49.16 27.37 49 16.23 70.4 0.5 70.4 11.36 49 18.12 35.71 36.08 0.31 36.09 0.3 52.67 0.3 52.7 0.36 43.95 17.14 34.29 35.71 48.61 35.86 54.83 49.16"/><polygon class="cls-8" points="52.7 0.36 52.67 0.3 52.72 0.3 52.7 0.36"/><polygon class="cls-9" points="84.53 38.39 74.87 49.9 84.11 70.55 68.87 70.38 64.87 61.82 57.06 71.18 39.89 71.18 59.06 49.42 58.87 49 52.65 35.71 45.71 21.76 54.17 5.9 69.41 37.7 84.86 20.23 84.53 38.39"/><path class="cls-1" d="M0,50.21V20.43a20.46,20.46,0,0,1,1.5-7.69v0A19.14,19.14,0,0,1,3,9.73,18.82,18.82,0,0,1,5.36,6.65c.1-.11.2-.22.32-.33a.94.94,0,0,1,.17-.18q.48-.51,1-1A20.13,20.13,0,0,1,14.43.91,16.43,16.43,0,0,1,16.1.47l.09,0h0c.37-.08.71-.15,1.09-.2L17.8.17A19,19,0,0,1,20.43,0H50.21A18.49,18.49,0,0,1,53,.21,12.41,12.41,0,0,1,54.4.44l.13,0A15.15,15.15,0,0,1,56.2.91a19.53,19.53,0,0,1,3.44,1.4,20.54,20.54,0,0,1,4.12,2.84,17.81,17.81,0,0,1,1.51,1.5A18.88,18.88,0,0,1,67.6,9.73a19.13,19.13,0,0,1,1.58,3.13,20.24,20.24,0,0,1,1.45,7.57V50.21a20.42,20.42,0,0,1-2.06,9c-.09.19-.18.36-.29.55a20.42,20.42,0,0,1-18.07,10.9H20.43A20.4,20.4,0,0,1,2.36,59.73c-.12-.2-.22-.4-.32-.6A20.36,20.36,0,0,1,0,50.21Z" transform="translate(7.36 0.54)"/></g><path class="cls-2" d="M98.87,20.33l12.49,29.93h-6.44l-6-14.46-6,14.46H86.43Zm38.18,0-8.06,15,8.06,14.94h-6.79l-4.65-8.68L121,50.26h-6.75l8-14.94-8-14.95H121L125.61,29l4.65-8.64Zm9.69,29.89h-6V20.37h6Zm19.23.13a15.08,15.08,0,1,1,15.08-15.07A15.07,15.07,0,0,1,166,50.39Zm0-24.19a9.12,9.12,0,1,0,9.12,9.12A9.11,9.11,0,0,0,166,26.2Zm36.1-5.83h6V50.26l-16.87-16v16h-6V20.37l16.87,16Zm16.07,29.89h-6V20.37h6Zm26.55-29.89-8.06,15,8.06,14.94H237.9l-4.65-8.68-4.64,8.68h-6.75l8-14.94-8-14.95h6.75L233.25,29l4.65-8.64Z" transform="translate(7.36 0.54)"/></g></g></svg>